<svg xmlns="http://www.w3.org/2000/svg" width="16" height="16" viewBox="0 0 16 16">
    <defs>
        <linearGradient id="prefix__a" x1="100%" x2="0%" y1="0%" y2="100%">
            <stop offset="0%" stop-color="#5F6BFB"/>
            <stop offset="100%" stop-color="#724DE4"/>
        </linearGradient>
    </defs>
    <g fill="none" fill-rule="evenodd">
        <circle cx="8" cy="8" r="8" fill="url(#prefix__a)"/>
        <path fill="#FFF" d="M3.698 7.176c-.52.521-.732 1.273-.553 1.973.179.7.72 1.241 1.42 1.42.7.179 1.452-.032 1.973-.553l3.478-3.478c.491-.491 1.277-.501 1.755-.023s.468 1.263-.023 1.755l-1.121 1.12-.635-.634-.429 2.253 2.253-.43-.635-.634 1.12-1.121c.522-.521.733-1.273.554-1.973-.179-.7-.72-1.241-1.42-1.42-.7-.179-1.452.032-1.973.553L5.984 9.462c-.491.491-1.277.501-1.755.023s-.468-1.263.023-1.755L5.28 6.703l.634.634.429-2.252-2.252.429.635.634-1.028 1.028z"/>
    </g>
</svg>
