<svg xmlns="http://www.w3.org/2000/svg" width="24" height="24" viewBox="0 0 24 24">
    <g fill="none" fill-rule="evenodd">
        <circle cx="12" cy="12" r="12" fill="#FFF"/>
        <path fill="#062536" d="M5.547 10.764c-.781.782-1.098 1.91-.83 2.96.27 1.05 1.08 1.861 2.13 2.13 1.05.268 2.179-.048 2.96-.83l5.217-5.217c.737-.737 1.915-.752 2.633-.035.717.717.702 1.896-.035 2.633l-1.682 1.68-.951-.95-.644 3.378 3.378-.644-.951-.952 1.68-1.681c.782-.782 1.099-1.91.83-2.96-.268-1.05-1.08-1.861-2.13-2.13-1.05-.268-2.178.048-2.959.83l-5.217 5.217c-.737.737-1.915.752-2.633.035-.717-.717-.702-1.896.035-2.633l1.542-1.541.952.952.642-3.378-3.377.643.952.952-1.542 1.541z"/>
    </g>
</svg>
