<svg xmlns="http://www.w3.org/2000/svg" width="32" height="32" viewBox="0 0 32 32">
    <g fill="none" fill-rule="evenodd">
        <circle cx="16" cy="16" r="16" fill="#FFF"/>
        <path fill="#062536" d="M7.396 14.352C6.354 15.394 5.932 16.9 6.29 18.298c.358 1.4 1.44 2.482 2.84 2.84 1.4.358 2.904-.064 3.946-1.106l6.956-6.956c.983-.982 2.554-1.003 3.51-.047.956.957.936 2.528-.046 3.51l-2.242 2.242-1.27-1.269-.858 4.505 4.505-.859-1.269-1.269 2.242-2.241c1.042-1.042 1.464-2.547 1.106-3.946-.358-1.4-1.44-2.482-2.84-2.84-1.4-.358-2.904.064-3.946 1.106l-6.956 6.956c-.983.982-2.554 1.003-3.51.047-.956-.957-.936-2.528.046-3.51l2.056-2.056 1.269 1.27.857-4.504-4.503.857 1.269 1.269-2.056 2.055z"/>
    </g>
</svg>
