<svg xmlns="http://www.w3.org/2000/svg" width="128" height="128" viewBox="0 0 128 128">
    <defs>
        <linearGradient id="prefix__a" x1="100%" x2="0%" y1="0%" y2="100%">
            <stop offset="0%" stop-color="#5F6BFB"/>
            <stop offset="100%" stop-color="#724DE4"/>
        </linearGradient>
    </defs>
    <g fill="none" fill-rule="evenodd">
        <path fill="url(#prefix__a)" d="M86.857 0H41.143C18.286 0 0 18.286 0 41.143v45.714C0 109.714 18.286 128 41.143 128h45.714C109.714 128 128 109.714 128 86.857V41.143C128 18.286 109.714 0 86.857 0z"/>
        <path fill="#FFF" d="M29.585 57.41c-4.168 4.167-5.856 10.184-4.423 15.782 1.43 5.6 5.76 9.93 11.36 11.36 5.598 1.432 11.615-.255 15.782-4.423L80.13 52.304c3.93-3.93 10.215-4.01 14.04-.186 3.824 3.825 3.743 10.11-.187 14.04l-8.967 8.966-5.075-5.075-3.436 18.02 18.02-3.436-5.076-5.076 8.967-8.967c4.168-4.167 5.856-10.184 4.423-15.782-1.43-5.6-5.76-9.93-11.36-11.36-5.598-1.432-11.615.255-15.782 4.423L47.87 75.696c-3.93 3.93-10.215 4.01-14.04.186-3.824-3.825-3.743-10.11.187-14.04l8.222-8.222 5.076 5.076 3.428-18.013-18.013 3.429 5.076 5.076-8.222 8.222z"/>
    </g>
</svg>
