<svg xmlns="http://www.w3.org/2000/svg" width="24" height="24" viewBox="0 0 24 24">
    <defs>
        <linearGradient id="prefix__a" x1="100%" x2="0%" y1="0%" y2="100%">
            <stop offset="0%" stop-color="#5F6BFB"/>
            <stop offset="100%" stop-color="#724DE4"/>
        </linearGradient>
    </defs>
    <g fill="none" fill-rule="evenodd">
        <path fill="url(#prefix__a)" d="M16.286 0H7.714C3.43 0 0 3.429 0 7.714v8.572C0 20.57 3.429 24 7.714 24h8.572C20.57 24 24 20.571 24 16.286V7.714C24 3.43 20.571 0 16.286 0z"/>
        <path fill="#FFF" d="M5.547 10.764c-.781.782-1.098 1.91-.83 2.96.27 1.05 1.08 1.861 2.13 2.13 1.05.268 2.179-.048 2.96-.83l5.217-5.217c.737-.737 1.915-.752 2.633-.035.717.717.702 1.896-.035 2.633l-1.682 1.68-.951-.95-.644 3.378 3.378-.644-.951-.952 1.68-1.681c.782-.782 1.099-1.91.83-2.96-.268-1.05-1.08-1.861-2.13-2.13-1.05-.268-2.178.048-2.959.83l-5.217 5.217c-.737.737-1.915.752-2.633.035-.717-.717-.702-1.896.035-2.633l1.542-1.541.952.952.642-3.378-3.377.643.952.952-1.542 1.541z"/>
    </g>
</svg>
