<svg xmlns="http://www.w3.org/2000/svg" width="256" height="256" viewBox="0 0 256 256">
    <g fill="none" fill-rule="evenodd">
        <path fill="#FFF" d="M173.714 0H82.286C36.57 0 0 36.571 0 82.286v91.428C0 219.43 36.571 256 82.286 256h91.428C219.43 256 256 219.429 256 173.714V82.286C256 36.57 219.429 0 173.714 0z"/>
        <path fill="#062536" d="M59.17 114.82c-8.336 8.335-11.711 20.368-8.846 31.564 2.86 11.2 11.519 19.859 22.72 22.72 11.196 2.865 23.23-.51 31.565-8.846l55.65-55.65c7.859-7.86 20.429-8.022 28.078-.372 7.65 7.65 7.488 20.22-.372 28.08l-17.934 17.933-10.152-10.152-6.87 36.04 36.04-6.87-10.152-10.152 17.933-17.934c8.336-8.336 11.711-20.37 8.846-31.565-2.86-11.2-11.519-19.859-22.72-22.72-11.196-2.865-23.23.51-31.565 8.846l-55.65 55.65c-7.859 7.86-20.429 8.022-28.078.372-7.65-7.65-7.488-20.22.372-28.08l16.444-16.443 10.152 10.152 6.857-36.026-36.026 6.856 10.152 10.152L59.17 114.82z"/>
    </g>
</svg>
