<svg xmlns="http://www.w3.org/2000/svg" width="64" height="64" viewBox="0 0 64 64">
    <g fill="none" fill-rule="evenodd">
        <path fill="#FFF" d="M43.429 0H20.57C9.143 0 0 9.143 0 20.571V43.43C0 54.857 9.143 64 20.571 64H43.43C54.857 64 64 54.857 64 43.429V20.57C64 9.143 54.857 0 43.429 0z"/>
        <path fill="#062536" d="M14.792 28.705c-2.083 2.084-2.927 5.092-2.211 7.891.715 2.8 2.88 4.965 5.68 5.68 2.799.716 5.807-.128 7.891-2.211l13.913-13.913c1.964-1.965 5.107-2.005 7.02-.093 1.912 1.912 1.871 5.055-.094 7.02l-4.483 4.483-2.538-2.538-1.718 9.01 9.01-1.717-2.538-2.538 4.484-4.484c2.083-2.084 2.927-5.092 2.211-7.891-.715-2.8-2.88-4.965-5.68-5.68-2.799-.716-5.807.128-7.891 2.211L23.935 37.848c-1.964 1.965-5.107 2.005-7.02.093-1.912-1.912-1.871-5.055.094-7.02l4.11-4.11 2.539 2.537 1.714-9.006-9.007 1.714 2.538 2.538-4.11 4.11z"/>
    </g>
</svg>
