<?xml version="1.0" encoding="utf-8"?>
<!-- Generator: Adobe Illustrator 26.0.1, SVG Export Plug-In . SVG Version: 6.00 Build 0)  -->
<svg version="1.1" id="Camada_1" xmlns="http://www.w3.org/2000/svg" xmlns:xlink="http://www.w3.org/1999/xlink" x="0px" y="0px"
	 viewBox="0 0 100 100" style="enable-background:new 0 0 100 100;" xml:space="preserve">
<style type="text/css">
	.st0{fill:url(#SVGID_1_);}
</style>
<linearGradient id="SVGID_1_" gradientUnits="userSpaceOnUse" x1="24.6828" y1="50" x2="75.3172" y2="50">
	<stop  offset="5.327789e-09" style="stop-color:#7F49F5"/>
	<stop  offset="1" style="stop-color:#A698FB"/>
</linearGradient>
<path class="st0" d="M48.63,14.99c0.91,0,1.82,0,2.74,0c0.11,0.03,0.21,0.08,0.32,0.09c2.01,0.16,3.96,0.6,5.83,1.36
	c5.42,2.21,9.24,6.04,11.49,11.44c1.19,2.85,1.51,5.84,1.49,8.9c-0.02,3.31,0.01,6.61-0.02,9.92c0,0.58,0.19,0.87,0.74,1.03
	c0.72,0.21,1.42,0.49,2.12,0.76c1.26,0.47,1.96,1.42,1.97,2.75c0.01,8.87,0.01,17.73,0,26.6c0,1.32-0.67,2.26-1.89,2.74
	c-5.58,2.2-11.37,3.58-17.34,4.15c-4.37,0.42-8.74,0.37-13.1-0.11c-5.65-0.62-11.11-1.98-16.39-4.04c-1.22-0.48-1.89-1.41-1.89-2.74
	c-0.01-8.87-0.01-17.73,0-26.6c0-1.33,0.71-2.28,1.97-2.75c0.68-0.26,1.36-0.53,2.06-0.73c0.61-0.17,0.81-0.49,0.81-1.13
	c-0.03-3.51-0.01-7.02-0.01-10.53c-0.01-3.52,0.65-6.89,2.31-10.01c2.76-5.18,6.95-8.66,12.6-10.28
	C45.79,15.42,47.23,15.26,48.63,14.99z M63.38,45.56c0.02-0.21,0.04-0.3,0.04-0.39c0-3.35,0.06-6.7-0.02-10.04
	c-0.17-7.07-5.68-12.69-12.72-13.05c-7.52-0.39-13.89,5.46-14.08,12.99c-0.08,3.35-0.02,6.7-0.02,10.04c0,0.13,0.04,0.25,0.07,0.44
	C45.56,43.67,54.45,43.68,63.38,45.56z M47.22,68.87c0.01,0,0.02,0,0.03,0c0,1.55-0.05,3.1,0.02,4.64c0.06,1.41,1.27,2.47,2.68,2.49
	c1.64,0.02,2.81-1.17,2.82-2.92c0.02-2.78,0.02-5.56,0-8.33c0-0.5,0.13-0.81,0.56-1.12c2.01-1.46,2.7-3.82,1.89-6.25
	c-0.71-2.13-2.98-3.7-5.26-3.66c-2.38,0.04-4.51,1.6-5.22,3.81c-0.76,2.38-0.02,4.7,2.01,6.16c0.36,0.26,0.49,0.52,0.48,0.96
	C47.2,66.04,47.22,67.46,47.22,68.87z"/>
</svg>
