<?xml version="1.0" encoding="utf-8"?>
<!-- Generator: Adobe Illustrator 26.0.1, SVG Export Plug-In . SVG Version: 6.00 Build 0)  -->
<svg version="1.1" id="Camada_1" xmlns="http://www.w3.org/2000/svg" xmlns:xlink="http://www.w3.org/1999/xlink" x="0px" y="0px"
	 viewBox="0 0 100 100" style="enable-background:new 0 0 100 100;" xml:space="preserve">
<style type="text/css">
	.st0{fill:url(#SVGID_1_);}
	.st1{fill:#FFFFFF;}
</style>
<g>
	<linearGradient id="SVGID_1_" gradientUnits="userSpaceOnUse" x1="13.6376" y1="50" x2="86.3624" y2="50">
		<stop  offset="0" style="stop-color:#85A5FF"/>
		<stop  offset="1" style="stop-color:#7B4CF5"/>
	</linearGradient>
	<circle class="st0" cx="50" cy="50" r="36.36"/>
	<g>
		<polygon class="st1" points="39.9,29.77 44.95,34.83 50,39.89 55.05,34.83 60.1,29.77 55.12,29.77 55.12,22.18 44.88,22.18 
			44.88,29.77 		"/>
		<polygon class="st1" points="60.1,70.23 55.05,65.17 50,60.11 44.95,65.17 39.9,70.23 44.88,70.23 44.88,77.82 55.12,77.82 
			55.12,70.23 		"/>
	</g>
	<g>
		<polygon class="st1" points="67.7,60.1 72.76,55.05 77.82,50 72.76,44.95 67.7,39.9 67.7,44.88 60.11,44.88 60.11,55.12 
			67.7,55.12 		"/>
		<polygon class="st1" points="32.3,39.9 27.24,44.95 22.18,50 27.24,55.05 32.3,60.1 32.3,55.12 39.89,55.12 39.89,44.88 
			32.3,44.88 		"/>
	</g>
</g>
</svg>
