<?xml version="1.0" encoding="utf-8"?>
<!-- Generator: Adobe Illustrator 26.0.1, SVG Export Plug-In . SVG Version: 6.00 Build 0)  -->
<svg version="1.1" id="Camada_1" xmlns="http://www.w3.org/2000/svg" xmlns:xlink="http://www.w3.org/1999/xlink" x="0px" y="0px"
	 viewBox="0 0 100 100" style="enable-background:new 0 0 100 100;" xml:space="preserve">
<style type="text/css">
	.st0{fill:url(#SVGID_1_);}
</style>
<g>
	<linearGradient id="SVGID_1_" gradientUnits="userSpaceOnUse" x1="96.1534" y1="50" x2="3.8466" y2="50">
		<stop  offset="5.327789e-09" style="stop-color:#6CA5FF"/>
		<stop  offset="1" style="stop-color:#524DFB"/>
	</linearGradient>
	<path class="st0" d="M3.85,59.19c0.57-0.79,1.04-1.68,1.72-2.36c7.28-7.33,14.6-14.63,21.9-21.94c0.67-0.67,1.38-1.24,2.38-1.33
		c1.86-0.16,3.45,1.01,3.58,2.87c0.14,1.94,0.07,3.9,0.09,5.85c0.01,1.44,0,2.87,0,4.43c0.47,0,0.85,0,1.23,0
		c11.41,0,22.83,0.05,34.24-0.03c2.84-0.02,4.26,1.67,4.09,4.14c-0.1,1.37-0.02,2.75-0.02,3.96c4.89-4.89,9.84-9.84,14.69-14.69
		c-4.78-4.78-9.75-9.75-14.69-14.71c0,1.33,0,2.81,0,4.3c0,2.54-1.27,3.84-3.81,3.84c-8.47,0.01-16.94,0.01-25.41,0
		c-2.64,0-4.27-1.98-3.58-4.26c0.44-1.44,1.69-2.33,3.37-2.33c3.75-0.01,7.51,0,11.26,0c3.48,0,6.97,0,10.45,0c0.33,0,0.65,0,1.07,0
		c0.02-0.37,0.05-0.69,0.05-1.01c0-2.85-0.02-5.71,0.01-8.56c0.02-2.24,1.47-3.78,3.49-3.55c0.77,0.09,1.66,0.48,2.21,1.02
		c7.66,7.59,15.28,15.22,22.9,22.86c1.5,1.5,1.44,3.4-0.1,4.95c-7.53,7.55-15.08,15.08-22.61,22.63c-1.11,1.11-2.38,1.53-3.85,0.94
		c-1.45-0.59-2.03-1.79-2.04-3.3c-0.01-2.85,0-5.71-0.01-8.56c0-0.32-0.03-0.64-0.05-1.05c-0.43,0-0.78,0-1.14,0
		c-11.5,0-23.01,0-34.51,0c-2.62,0-3.84-1.24-3.84-3.87c0-1.2,0-2.4,0-3.6c0-0.26,0-0.52,0-0.72c-4.97,4.98-9.92,9.94-14.81,14.83
		c4.83,4.83,9.8,9.8,14.75,14.75c0.01-0.07,0.05-0.29,0.05-0.5c0.01-1.44-0.02-2.88,0.01-4.33c0.04-1.83,1.21-3.11,3.03-3.32
		c0.3-0.03,0.6-0.05,0.9-0.05c8.38,0,16.76-0.01,25.14,0.01c0.56,0,1.15,0.05,1.68,0.22c1.45,0.47,2.37,1.97,2.18,3.45
		c-0.21,1.57-1.42,2.75-2.99,2.9c-0.33,0.03-0.66,0.02-0.99,0.02c-7.09,0-14.18,0-21.27,0c-0.32,0-0.65,0-1.08,0
		c0,0.4,0,0.72,0,1.04c0,2.79,0.02,5.59-0.01,8.38c-0.02,2.35-1.48,3.95-3.53,3.7c-0.77-0.1-1.65-0.5-2.2-1.05
		c-7.64-7.57-15.24-15.18-22.82-22.8c-0.47-0.47-0.75-1.13-1.11-1.71C3.85,60.15,3.85,59.67,3.85,59.19z"/>
</g>
</svg>
